<svg id="visual" viewBox="0 0 480 200" width="480" height="200" xmlns="http://www.w3.org/2000/svg" xmlns:xlink="http://www.w3.org/1999/xlink" version="1.1"><path d="M0 125L11.5 129C23 133 46 141 68.8 145.7C91.7 150.3 114.3 151.7 137.2 147C160 142.3 183 131.7 205.8 130.3C228.7 129 251.3 137 274.2 136.5C297 136 320 127 342.8 123.8C365.7 120.7 388.3 123.3 411.2 128.3C434 133.3 457 140.7 468.5 144.3L480 148L480 201L468.5 201C457 201 434 201 411.2 201C388.3 201 365.7 201 342.8 201C320 201 297 201 274.2 201C251.3 201 228.7 201 205.8 201C183 201 160 201 137.2 201C114.3 201 91.7 201 68.8 201C46 201 23 201 11.5 201L0 201Z" fill="#4065a0"></path><path d="M0 136L11.5 139.7C23 143.3 46 150.7 68.8 154.7C91.7 158.7 114.3 159.3 137.2 158.3C160 157.3 183 154.7 205.8 153.7C228.7 152.7 251.3 153.3 274.2 149.2C297 145 320 136 342.8 134.2C365.7 132.3 388.3 137.7 411.2 138C434 138.3 457 133.7 468.5 131.3L480 129L480 201L468.5 201C457 201 434 201 411.2 201C388.3 201 365.7 201 342.8 201C320 201 297 201 274.2 201C251.3 201 228.7 201 205.8 201C183 201 160 201 137.2 201C114.3 201 91.7 201 68.8 201C46 201 23 201 11.5 201L0 201Z" fill="#3880bc"></path><path d="M0 145L11.5 148C23 151 46 157 68.8 158C91.7 159 114.3 155 137.2 156.2C160 157.3 183 163.7 205.8 162.7C228.7 161.7 251.3 153.3 274.2 153.7C297 154 320 163 342.8 166C365.7 169 388.3 166 411.2 162.5C434 159 457 155 468.5 153L480 151L480 201L468.5 201C457 201 434 201 411.2 201C388.3 201 365.7 201 342.8 201C320 201 297 201 274.2 201C251.3 201 228.7 201 205.8 201C183 201 160 201 137.2 201C114.3 201 91.7 201 68.8 201C46 201 23 201 11.5 201L0 201Z" fill="#2a9bd6"></path><path d="M0 165L11.5 164.8C23 164.7 46 164.3 68.8 165.7C91.7 167 114.3 170 137.2 171C160 172 183 171 205.8 170.7C228.7 170.3 251.3 170.7 274.2 168.3C297 166 320 161 342.8 161.5C365.7 162 388.3 168 411.2 168.5C434 169 457 164 468.5 161.5L480 159L480 201L468.5 201C457 201 434 201 411.2 201C388.3 201 365.7 201 342.8 201C320 201 297 201 274.2 201C251.3 201 228.7 201 205.8 201C183 201 160 201 137.2 201C114.3 201 91.7 201 68.8 201C46 201 23 201 11.5 201L0 201Z" fill="#12b7ec"></path><path d="M0 192L11.5 190.3C23 188.7 46 185.3 68.8 182.8C91.7 180.3 114.3 178.7 137.2 177C160 175.3 183 173.7 205.8 172.8C228.7 172 251.3 172 274.2 172.5C297 173 320 174 342.8 177.3C365.7 180.7 388.3 186.3 411.2 186.7C434 187 457 182 468.5 179.5L480 177L480 201L468.5 201C457 201 434 201 411.2 201C388.3 201 365.7 201 342.8 201C320 201 297 201 274.2 201C251.3 201 228.7 201 205.8 201C183 201 160 201 137.2 201C114.3 201 91.7 201 68.8 201C46 201 23 201 11.5 201L0 201Z" fill="#00d4ff"></path></svg>