<svg id="visual" viewBox="0 0 480 200" width="480" height="200" xmlns="http://www.w3.org/2000/svg" xmlns:xlink="http://www.w3.org/1999/xlink" version="1.1"><path d="M0 130L11.5 131.3C23 132.7 46 135.3 68.8 136.7C91.7 138 114.3 138 137.2 133.7C160 129.3 183 120.7 205.8 116.5C228.7 112.3 251.3 112.7 274.2 119.2C297 125.7 320 138.3 342.8 145C365.7 151.7 388.3 152.3 411.2 148C434 143.7 457 134.3 468.5 129.7L480 125L480 201L468.5 201C457 201 434 201 411.2 201C388.3 201 365.7 201 342.8 201C320 201 297 201 274.2 201C251.3 201 228.7 201 205.8 201C183 201 160 201 137.2 201C114.3 201 91.7 201 68.8 201C46 201 23 201 11.5 201L0 201Z" fill="#9147be"></path><path d="M0 161L11.5 158C23 155 46 149 68.8 145.2C91.7 141.3 114.3 139.7 137.2 142C160 144.3 183 150.7 205.8 149.7C228.7 148.7 251.3 140.3 274.2 140.7C297 141 320 150 342.8 155.2C365.7 160.3 388.3 161.7 411.2 160C434 158.3 457 153.7 468.5 151.3L480 149L480 201L468.5 201C457 201 434 201 411.2 201C388.3 201 365.7 201 342.8 201C320 201 297 201 274.2 201C251.3 201 228.7 201 205.8 201C183 201 160 201 137.2 201C114.3 201 91.7 201 68.8 201C46 201 23 201 11.5 201L0 201Z" fill="#a261ca"></path><path d="M0 172L11.5 170.2C23 168.3 46 164.7 68.8 162.3C91.7 160 114.3 159 137.2 156.2C160 153.3 183 148.7 205.8 150.8C228.7 153 251.3 162 274.2 165C297 168 320 165 342.8 161.8C365.7 158.7 388.3 155.3 411.2 155C434 154.7 457 157.3 468.5 158.7L480 160L480 201L468.5 201C457 201 434 201 411.2 201C388.3 201 365.7 201 342.8 201C320 201 297 201 274.2 201C251.3 201 228.7 201 205.8 201C183 201 160 201 137.2 201C114.3 201 91.7 201 68.8 201C46 201 23 201 11.5 201L0 201Z" fill="#b37bd6"></path><path d="M0 156L11.5 157.5C23 159 46 162 68.8 165.3C91.7 168.7 114.3 172.3 137.2 175.2C160 178 183 180 205.8 179C228.7 178 251.3 174 274.2 170.7C297 167.3 320 164.7 342.8 166C365.7 167.3 388.3 172.7 411.2 174.8C434 177 457 176 468.5 175.5L480 175L480 201L468.5 201C457 201 434 201 411.2 201C388.3 201 365.7 201 342.8 201C320 201 297 201 274.2 201C251.3 201 228.7 201 205.8 201C183 201 160 201 137.2 201C114.3 201 91.7 201 68.8 201C46 201 23 201 11.5 201L0 201Z" fill="#c494e2"></path><path d="M0 182L11.5 183.7C23 185.3 46 188.7 68.8 188.5C91.7 188.3 114.3 184.7 137.2 181.5C160 178.3 183 175.7 205.8 176.3C228.7 177 251.3 181 274.2 181.5C297 182 320 179 342.8 177.8C365.7 176.7 388.3 177.3 411.2 179.8C434 182.3 457 186.7 468.5 188.8L480 191L480 201L468.5 201C457 201 434 201 411.2 201C388.3 201 365.7 201 342.8 201C320 201 297 201 274.2 201C251.3 201 228.7 201 205.8 201C183 201 160 201 137.2 201C114.3 201 91.7 201 68.8 201C46 201 23 201 11.5 201L0 201Z" fill="#d5aeed"></path></svg>