<svg id="visual" viewBox="0 0 900 200" width="900" height="200" xmlns="http://www.w3.org/2000/svg" xmlns:xlink="http://www.w3.org/1999/xlink" version="1.1"><path d="M0 130L21.5 131.3C43 132.7 86 135.3 128.8 136.7C171.7 138 214.3 138 257.2 133.7C300 129.3 343 120.7 385.8 116.5C428.7 112.3 471.3 112.7 514.2 119.2C557 125.7 600 138.3 642.8 145C685.7 151.7 728.3 152.3 771.2 148C814 143.7 857 134.3 878.5 129.7L900 125L900 201L878.5 201C857 201 814 201 771.2 201C728.3 201 685.7 201 642.8 201C600 201 557 201 514.2 201C471.3 201 428.7 201 385.8 201C343 201 300 201 257.2 201C214.3 201 171.7 201 128.8 201C86 201 43 201 21.5 201L0 201Z" fill="#9147be"></path><path d="M0 161L21.5 158C43 155 86 149 128.8 145.2C171.7 141.3 214.3 139.7 257.2 142C300 144.3 343 150.7 385.8 149.7C428.7 148.7 471.3 140.3 514.2 140.7C557 141 600 150 642.8 155.2C685.7 160.3 728.3 161.7 771.2 160C814 158.3 857 153.7 878.5 151.3L900 149L900 201L878.5 201C857 201 814 201 771.2 201C728.3 201 685.7 201 642.8 201C600 201 557 201 514.2 201C471.3 201 428.7 201 385.8 201C343 201 300 201 257.2 201C214.3 201 171.7 201 128.8 201C86 201 43 201 21.5 201L0 201Z" fill="#a261ca"></path><path d="M0 172L21.5 170.2C43 168.3 86 164.7 128.8 162.3C171.7 160 214.3 159 257.2 156.2C300 153.3 343 148.7 385.8 150.8C428.7 153 471.3 162 514.2 165C557 168 600 165 642.8 161.8C685.7 158.7 728.3 155.3 771.2 155C814 154.7 857 157.3 878.5 158.7L900 160L900 201L878.5 201C857 201 814 201 771.2 201C728.3 201 685.7 201 642.8 201C600 201 557 201 514.2 201C471.3 201 428.7 201 385.8 201C343 201 300 201 257.2 201C214.3 201 171.7 201 128.8 201C86 201 43 201 21.5 201L0 201Z" fill="#b37bd6"></path><path d="M0 156L21.5 157.5C43 159 86 162 128.8 165.3C171.7 168.7 214.3 172.3 257.2 175.2C300 178 343 180 385.8 179C428.7 178 471.3 174 514.2 170.7C557 167.3 600 164.7 642.8 166C685.7 167.3 728.3 172.7 771.2 174.8C814 177 857 176 878.5 175.5L900 175L900 201L878.5 201C857 201 814 201 771.2 201C728.3 201 685.7 201 642.8 201C600 201 557 201 514.2 201C471.3 201 428.7 201 385.8 201C343 201 300 201 257.2 201C214.3 201 171.7 201 128.8 201C86 201 43 201 21.5 201L0 201Z" fill="#c494e2"></path><path d="M0 182L21.5 183.7C43 185.3 86 188.7 128.8 188.5C171.7 188.3 214.3 184.7 257.2 181.5C300 178.3 343 175.7 385.8 176.3C428.7 177 471.3 181 514.2 181.5C557 182 600 179 642.8 177.8C685.7 176.7 728.3 177.3 771.2 179.8C814 182.3 857 186.7 878.5 188.8L900 191L900 201L878.5 201C857 201 814 201 771.2 201C728.3 201 685.7 201 642.8 201C600 201 557 201 514.2 201C471.3 201 428.7 201 385.8 201C343 201 300 201 257.2 201C214.3 201 171.7 201 128.8 201C86 201 43 201 21.5 201L0 201Z" fill="#d5aeed"></path></svg>