<svg id="visual" viewBox="0 0 900 600" width="900" height="600" xmlns="http://www.w3.org/2000/svg" xmlns:xlink="http://www.w3.org/1999/xlink" version="1.1"><path d="M0 445L21.5 431.2C43 417.3 86 389.7 128.8 379.3C171.7 369 214.3 376 257.2 388.8C300 401.7 343 420.3 385.8 417.3C428.7 414.3 471.3 389.7 514.2 384.5C557 379.3 600 393.7 642.8 401.7C685.7 409.7 728.3 411.3 771.2 412C814 412.7 857 412.3 878.5 412.2L900 412L900 601L878.5 601C857 601 814 601 771.2 601C728.3 601 685.7 601 642.8 601C600 601 557 601 514.2 601C471.3 601 428.7 601 385.8 601C343 601 300 601 257.2 601C214.3 601 171.7 601 128.8 601C86 601 43 601 21.5 601L0 601Z" fill="#fc466b"></path><path d="M0 402L21.5 413.3C43 424.7 86 447.3 128.8 456.8C171.7 466.3 214.3 462.7 257.2 452.3C300 442 343 425 385.8 422.2C428.7 419.3 471.3 430.7 514.2 428.5C557 426.3 600 410.7 642.8 405.7C685.7 400.7 728.3 406.3 771.2 406C814 405.7 857 399.3 878.5 396.2L900 393L900 601L878.5 601C857 601 814 601 771.2 601C728.3 601 685.7 601 642.8 601C600 601 557 601 514.2 601C471.3 601 428.7 601 385.8 601C343 601 300 601 257.2 601C214.3 601 171.7 601 128.8 601C86 601 43 601 21.5 601L0 601Z" fill="#f52e8f"></path><path d="M0 496L21.5 493.2C43 490.3 86 484.7 128.8 486.8C171.7 489 214.3 499 257.2 501.5C300 504 343 499 385.8 493.7C428.7 488.3 471.3 482.7 514.2 483.8C557 485 600 493 642.8 490.3C685.7 487.7 728.3 474.3 771.2 468.7C814 463 857 465 878.5 466L900 467L900 601L878.5 601C857 601 814 601 771.2 601C728.3 601 685.7 601 642.8 601C600 601 557 601 514.2 601C471.3 601 428.7 601 385.8 601C343 601 300 601 257.2 601C214.3 601 171.7 601 128.8 601C86 601 43 601 21.5 601L0 601Z" fill="#dc30b6"></path><path d="M0 512L21.5 513.8C43 515.7 86 519.3 128.8 516.7C171.7 514 214.3 505 257.2 500.3C300 495.7 343 495.3 385.8 495.5C428.7 495.7 471.3 496.3 514.2 502.3C557 508.3 600 519.7 642.8 523.2C685.7 526.7 728.3 522.3 771.2 514.5C814 506.7 857 495.3 878.5 489.7L900 484L900 601L878.5 601C857 601 814 601 771.2 601C728.3 601 685.7 601 642.8 601C600 601 557 601 514.2 601C471.3 601 428.7 601 385.8 601C343 601 300 601 257.2 601C214.3 601 171.7 601 128.8 601C86 601 43 601 21.5 601L0 601Z" fill="#ab47dc"></path><path d="M0 549L21.5 547.2C43 545.3 86 541.7 128.8 544.2C171.7 546.7 214.3 555.3 257.2 554.8C300 554.3 343 544.7 385.8 541.3C428.7 538 471.3 541 514.2 545.2C557 549.3 600 554.7 642.8 558.7C685.7 562.7 728.3 565.3 771.2 559.8C814 554.3 857 540.7 878.5 533.8L900 527L900 601L878.5 601C857 601 814 601 771.2 601C728.3 601 685.7 601 642.8 601C600 601 557 601 514.2 601C471.3 601 428.7 601 385.8 601C343 601 300 601 257.2 601C214.3 601 171.7 601 128.8 601C86 601 43 601 21.5 601L0 601Z" fill="#3f5efb"></path></svg>