<svg id="visual" viewBox="0 0 960 200" width="960" height="200" xmlns="http://www.w3.org/2000/svg" xmlns:xlink="http://www.w3.org/1999/xlink" version="1.1"><path d="M0 148L22.8 143.3C45.7 138.7 91.3 129.3 137 125.8C182.7 122.3 228.3 124.7 274 129C319.7 133.3 365.3 139.7 411.2 138.7C457 137.7 503 129.3 548.8 127.5C594.7 125.7 640.3 130.3 686 133C731.7 135.7 777.3 136.3 823 136.7C868.7 137 914.3 137 937.2 137L960 137L960 201L937.2 201C914.3 201 868.7 201 823 201C777.3 201 731.7 201 686 201C640.3 201 594.7 201 548.8 201C503 201 457 201 411.2 201C365.3 201 319.7 201 274 201C228.3 201 182.7 201 137 201C91.3 201 45.7 201 22.8 201L0 201Z" fill="#fc466b"></path><path d="M0 133L22.8 136.8C45.7 140.7 91.3 148.3 137 151.5C182.7 154.7 228.3 153.3 274 149.8C319.7 146.3 365.3 140.7 411.2 139.8C457 139 503 143 548.8 142.3C594.7 141.7 640.3 136.3 686 134.7C731.7 133 777.3 135 823 134.8C868.7 134.7 914.3 132.3 937.2 131.2L960 130L960 201L937.2 201C914.3 201 868.7 201 823 201C777.3 201 731.7 201 686 201C640.3 201 594.7 201 548.8 201C503 201 457 201 411.2 201C365.3 201 319.7 201 274 201C228.3 201 182.7 201 137 201C91.3 201 45.7 201 22.8 201L0 201Z" fill="#f52e8f"></path><path d="M0 165L22.8 164C45.7 163 91.3 161 137 161.7C182.7 162.3 228.3 165.7 274 166.5C319.7 167.3 365.3 165.7 411.2 163.8C457 162 503 160 548.8 160.3C594.7 160.7 640.3 163.3 686 162.5C731.7 161.7 777.3 157.3 823 155.5C868.7 153.7 914.3 154.3 937.2 154.7L960 155L960 201L937.2 201C914.3 201 868.7 201 823 201C777.3 201 731.7 201 686 201C640.3 201 594.7 201 548.8 201C503 201 457 201 411.2 201C365.3 201 319.7 201 274 201C228.3 201 182.7 201 137 201C91.3 201 45.7 201 22.8 201L0 201Z" fill="#dc30b6"></path><path d="M0 170L22.8 170.7C45.7 171.3 91.3 172.7 137 171.8C182.7 171 228.3 168 274 166.3C319.7 164.7 365.3 164.3 411.2 164.3C457 164.3 503 164.7 548.8 166.7C594.7 168.7 640.3 172.3 686 173.5C731.7 174.7 777.3 173.3 823 170.8C868.7 168.3 914.3 164.7 937.2 162.8L960 161L960 201L937.2 201C914.3 201 868.7 201 823 201C777.3 201 731.7 201 686 201C640.3 201 594.7 201 548.8 201C503 201 457 201 411.2 201C365.3 201 319.7 201 274 201C228.3 201 182.7 201 137 201C91.3 201 45.7 201 22.8 201L0 201Z" fill="#ab47dc"></path><path d="M0 182L22.8 181.5C45.7 181 91.3 180 137 180.8C182.7 181.7 228.3 184.3 274 184.2C319.7 184 365.3 181 411.2 180C457 179 503 180 548.8 181.3C594.7 182.7 640.3 184.3 686 185.7C731.7 187 777.3 188 823 186.2C868.7 184.3 914.3 179.7 937.2 177.3L960 175L960 201L937.2 201C914.3 201 868.7 201 823 201C777.3 201 731.7 201 686 201C640.3 201 594.7 201 548.8 201C503 201 457 201 411.2 201C365.3 201 319.7 201 274 201C228.3 201 182.7 201 137 201C91.3 201 45.7 201 22.8 201L0 201Z" fill="#3f5efb"></path></svg>