<svg id="visual" viewBox="0 0 1920 200" width="1920" height="200" xmlns="http://www.w3.org/2000/svg" xmlns:xlink="http://www.w3.org/1999/xlink" version="1.1"><path d="M0 136L45.7 132.8C91.3 129.7 182.7 123.3 274.2 121.3C365.7 119.3 457.3 121.7 548.8 124C640.3 126.3 731.7 128.7 823 131.8C914.3 135 1005.7 139 1097 139.7C1188.3 140.3 1279.7 137.7 1371.2 136.2C1462.7 134.7 1554.3 134.3 1645.8 132C1737.3 129.7 1828.7 125.3 1874.3 123.2L1920 121L1920 201L1874.3 201C1828.7 201 1737.3 201 1645.8 201C1554.3 201 1462.7 201 1371.2 201C1279.7 201 1188.3 201 1097 201C1005.7 201 914.3 201 823 201C731.7 201 640.3 201 548.8 201C457.3 201 365.7 201 274.2 201C182.7 201 91.3 201 45.7 201L0 201Z" fill="#f7c680"></path><path d="M0 156L45.7 155.7C91.3 155.3 182.7 154.7 274.2 151.8C365.7 149 457.3 144 548.8 140.8C640.3 137.7 731.7 136.3 823 135.5C914.3 134.7 1005.7 134.3 1097 136.5C1188.3 138.7 1279.7 143.3 1371.2 145.3C1462.7 147.3 1554.3 146.7 1645.8 148C1737.3 149.3 1828.7 152.7 1874.3 154.3L1920 156L1920 201L1874.3 201C1828.7 201 1737.3 201 1645.8 201C1554.3 201 1462.7 201 1371.2 201C1279.7 201 1188.3 201 1097 201C1005.7 201 914.3 201 823 201C731.7 201 640.3 201 548.8 201C457.3 201 365.7 201 274.2 201C182.7 201 91.3 201 45.7 201L0 201Z" fill="#f3a169"></path><path d="M0 161L45.7 160.8C91.3 160.7 182.7 160.3 274.2 159.3C365.7 158.3 457.3 156.7 548.8 157.5C640.3 158.3 731.7 161.7 823 163.7C914.3 165.7 1005.7 166.3 1097 164.5C1188.3 162.7 1279.7 158.3 1371.2 156C1462.7 153.7 1554.3 153.3 1645.8 152.8C1737.3 152.3 1828.7 151.7 1874.3 151.3L1920 151L1920 201L1874.3 201C1828.7 201 1737.3 201 1645.8 201C1554.3 201 1462.7 201 1371.2 201C1279.7 201 1188.3 201 1097 201C1005.7 201 914.3 201 823 201C731.7 201 640.3 201 548.8 201C457.3 201 365.7 201 274.2 201C182.7 201 91.3 201 45.7 201L0 201Z" fill="#eb7a5f"></path><path d="M0 164L45.7 163.8C91.3 163.7 182.7 163.3 274.2 164.8C365.7 166.3 457.3 169.7 548.8 172.3C640.3 175 731.7 177 823 176.3C914.3 175.7 1005.7 172.3 1097 169.2C1188.3 166 1279.7 163 1371.2 161.8C1462.7 160.7 1554.3 161.3 1645.8 163.8C1737.3 166.3 1828.7 170.7 1874.3 172.8L1920 175L1920 201L1874.3 201C1828.7 201 1737.3 201 1645.8 201C1554.3 201 1462.7 201 1371.2 201C1279.7 201 1188.3 201 1097 201C1005.7 201 914.3 201 823 201C731.7 201 640.3 201 548.8 201C457.3 201 365.7 201 274.2 201C182.7 201 91.3 201 45.7 201L0 201Z" fill="#dd5160"></path><path d="M0 183L45.7 183.8C91.3 184.7 182.7 186.3 274.2 185.3C365.7 184.3 457.3 180.7 548.8 179.3C640.3 178 731.7 179 823 179.5C914.3 180 1005.7 180 1097 179.8C1188.3 179.7 1279.7 179.3 1371.2 178.8C1462.7 178.3 1554.3 177.7 1645.8 177.5C1737.3 177.3 1828.7 177.7 1874.3 177.8L1920 178L1920 201L1874.3 201C1828.7 201 1737.3 201 1645.8 201C1554.3 201 1462.7 201 1371.2 201C1279.7 201 1188.3 201 1097 201C1005.7 201 914.3 201 823 201C731.7 201 640.3 201 548.8 201C457.3 201 365.7 201 274.2 201C182.7 201 91.3 201 45.7 201L0 201Z" fill="#c62368"></path></svg>