<svg id="visual" viewBox="0 0 480 200" width="480" height="200" xmlns="http://www.w3.org/2000/svg" xmlns:xlink="http://www.w3.org/1999/xlink" version="1.1"><path d="M0 136L11.5 132.8C23 129.7 46 123.3 68.8 121.3C91.7 119.3 114.3 121.7 137.2 124C160 126.3 183 128.7 205.8 131.8C228.7 135 251.3 139 274.2 139.7C297 140.3 320 137.7 342.8 136.2C365.7 134.7 388.3 134.3 411.2 132C434 129.7 457 125.3 468.5 123.2L480 121L480 201L468.5 201C457 201 434 201 411.2 201C388.3 201 365.7 201 342.8 201C320 201 297 201 274.2 201C251.3 201 228.7 201 205.8 201C183 201 160 201 137.2 201C114.3 201 91.7 201 68.8 201C46 201 23 201 11.5 201L0 201Z" fill="#f7c680"></path><path d="M0 156L11.5 155.7C23 155.3 46 154.7 68.8 151.8C91.7 149 114.3 144 137.2 140.8C160 137.7 183 136.3 205.8 135.5C228.7 134.7 251.3 134.3 274.2 136.5C297 138.7 320 143.3 342.8 145.3C365.7 147.3 388.3 146.7 411.2 148C434 149.3 457 152.7 468.5 154.3L480 156L480 201L468.5 201C457 201 434 201 411.2 201C388.3 201 365.7 201 342.8 201C320 201 297 201 274.2 201C251.3 201 228.7 201 205.8 201C183 201 160 201 137.2 201C114.3 201 91.7 201 68.8 201C46 201 23 201 11.5 201L0 201Z" fill="#f3a169"></path><path d="M0 161L11.5 160.8C23 160.7 46 160.3 68.8 159.3C91.7 158.3 114.3 156.7 137.2 157.5C160 158.3 183 161.7 205.8 163.7C228.7 165.7 251.3 166.3 274.2 164.5C297 162.7 320 158.3 342.8 156C365.7 153.7 388.3 153.3 411.2 152.8C434 152.3 457 151.7 468.5 151.3L480 151L480 201L468.5 201C457 201 434 201 411.2 201C388.3 201 365.7 201 342.8 201C320 201 297 201 274.2 201C251.3 201 228.7 201 205.8 201C183 201 160 201 137.2 201C114.3 201 91.7 201 68.8 201C46 201 23 201 11.5 201L0 201Z" fill="#eb7a5f"></path><path d="M0 164L11.5 163.8C23 163.7 46 163.3 68.8 164.8C91.7 166.3 114.3 169.7 137.2 172.3C160 175 183 177 205.8 176.3C228.7 175.7 251.3 172.3 274.2 169.2C297 166 320 163 342.8 161.8C365.7 160.7 388.3 161.3 411.2 163.8C434 166.3 457 170.7 468.5 172.8L480 175L480 201L468.5 201C457 201 434 201 411.2 201C388.3 201 365.7 201 342.8 201C320 201 297 201 274.2 201C251.3 201 228.7 201 205.8 201C183 201 160 201 137.2 201C114.3 201 91.7 201 68.8 201C46 201 23 201 11.5 201L0 201Z" fill="#dd5160"></path><path d="M0 183L11.5 183.8C23 184.7 46 186.3 68.8 185.3C91.7 184.3 114.3 180.7 137.2 179.3C160 178 183 179 205.8 179.5C228.7 180 251.3 180 274.2 179.8C297 179.7 320 179.3 342.8 178.8C365.7 178.3 388.3 177.7 411.2 177.5C434 177.3 457 177.7 468.5 177.8L480 178L480 201L468.5 201C457 201 434 201 411.2 201C388.3 201 365.7 201 342.8 201C320 201 297 201 274.2 201C251.3 201 228.7 201 205.8 201C183 201 160 201 137.2 201C114.3 201 91.7 201 68.8 201C46 201 23 201 11.5 201L0 201Z" fill="#c62368"></path></svg>