<svg id="visual" viewBox="0 0 900 200" width="900" height="200" xmlns="http://www.w3.org/2000/svg" xmlns:xlink="http://www.w3.org/1999/xlink" version="1.1"><path d="M0 136L21.5 132.8C43 129.7 86 123.3 128.8 121.3C171.7 119.3 214.3 121.7 257.2 124C300 126.3 343 128.7 385.8 131.8C428.7 135 471.3 139 514.2 139.7C557 140.3 600 137.7 642.8 136.2C685.7 134.7 728.3 134.3 771.2 132C814 129.7 857 125.3 878.5 123.2L900 121L900 201L878.5 201C857 201 814 201 771.2 201C728.3 201 685.7 201 642.8 201C600 201 557 201 514.2 201C471.3 201 428.7 201 385.8 201C343 201 300 201 257.2 201C214.3 201 171.7 201 128.8 201C86 201 43 201 21.5 201L0 201Z" fill="#94bbe9"></path><path d="M0 156L21.5 155.7C43 155.3 86 154.7 128.8 151.8C171.7 149 214.3 144 257.2 140.8C300 137.7 343 136.3 385.8 135.5C428.7 134.7 471.3 134.3 514.2 136.5C557 138.7 600 143.3 642.8 145.3C685.7 147.3 728.3 146.7 771.2 148C814 149.3 857 152.7 878.5 154.3L900 156L900 201L878.5 201C857 201 814 201 771.2 201C728.3 201 685.7 201 642.8 201C600 201 557 201 514.2 201C471.3 201 428.7 201 385.8 201C343 201 300 201 257.2 201C214.3 201 171.7 201 128.8 201C86 201 43 201 21.5 201L0 201Z" fill="#afb7ea"></path><path d="M0 161L21.5 160.8C43 160.7 86 160.3 128.8 159.3C171.7 158.3 214.3 156.7 257.2 157.5C300 158.3 343 161.7 385.8 163.7C428.7 165.7 471.3 166.3 514.2 164.5C557 162.7 600 158.3 642.8 156C685.7 153.7 728.3 153.3 771.2 152.8C814 152.3 857 151.7 878.5 151.3L900 151L900 201L878.5 201C857 201 814 201 771.2 201C728.3 201 685.7 201 642.8 201C600 201 557 201 514.2 201C471.3 201 428.7 201 385.8 201C343 201 300 201 257.2 201C214.3 201 171.7 201 128.8 201C86 201 43 201 21.5 201L0 201Z" fill="#c8b3e4"></path><path d="M0 164L21.5 163.8C43 163.7 86 163.3 128.8 164.8C171.7 166.3 214.3 169.7 257.2 172.3C300 175 343 177 385.8 176.3C428.7 175.7 471.3 172.3 514.2 169.2C557 166 600 163 642.8 161.8C685.7 160.7 728.3 161.3 771.2 163.8C814 166.3 857 170.7 878.5 172.8L900 175L900 201L878.5 201C857 201 814 201 771.2 201C728.3 201 685.7 201 642.8 201C600 201 557 201 514.2 201C471.3 201 428.7 201 385.8 201C343 201 300 201 257.2 201C214.3 201 171.7 201 128.8 201C86 201 43 201 21.5 201L0 201Z" fill="#deb0d9"></path><path d="M0 183L21.5 183.8C43 184.7 86 186.3 128.8 185.3C171.7 184.3 214.3 180.7 257.2 179.3C300 178 343 179 385.8 179.5C428.7 180 471.3 180 514.2 179.8C557 179.7 600 179.3 642.8 178.8C685.7 178.3 728.3 177.7 771.2 177.5C814 177.3 857 177.7 878.5 177.8L900 178L900 201L878.5 201C857 201 814 201 771.2 201C728.3 201 685.7 201 642.8 201C600 201 557 201 514.2 201C471.3 201 428.7 201 385.8 201C343 201 300 201 257.2 201C214.3 201 171.7 201 128.8 201C86 201 43 201 21.5 201L0 201Z" fill="#eeaeca"></path></svg>