<svg id="visual" viewBox="0 0 500 200" width="500" height="200" xmlns="http://www.w3.org/2000/svg" xmlns:xlink="http://www.w3.org/1999/xlink" version="1.1"><path d="M0 147L11.8 143.2C23.7 139.3 47.3 131.7 71.2 131C95 130.3 119 136.7 142.8 138.2C166.7 139.7 190.3 136.3 214.2 131.8C238 127.3 262 121.7 285.8 122.2C309.7 122.7 333.3 129.3 357.2 134.2C381 139 405 142 428.8 139.5C452.7 137 476.3 129 488.2 125L500 121L500 201L488.2 201C476.3 201 452.7 201 428.8 201C405 201 381 201 357.2 201C333.3 201 309.7 201 285.8 201C262 201 238 201 214.2 201C190.3 201 166.7 201 142.8 201C119 201 95 201 71.2 201C47.3 201 23.7 201 11.8 201L0 201Z" fill="#fa7268"></path><path d="M0 144L11.8 145.5C23.7 147 47.3 150 71.2 151.5C95 153 119 153 142.8 150.5C166.7 148 190.3 143 214.2 140.5C238 138 262 138 285.8 137.5C309.7 137 333.3 136 357.2 135.2C381 134.3 405 133.7 428.8 136.3C452.7 139 476.3 145 488.2 148L500 151L500 201L488.2 201C476.3 201 452.7 201 428.8 201C405 201 381 201 357.2 201C333.3 201 309.7 201 285.8 201C262 201 238 201 214.2 201C190.3 201 166.7 201 142.8 201C119 201 95 201 71.2 201C47.3 201 23.7 201 11.8 201L0 201Z" fill="#ef5f67"></path><path d="M0 163L11.8 160.5C23.7 158 47.3 153 71.2 150.7C95 148.3 119 148.7 142.8 152.2C166.7 155.7 190.3 162.3 214.2 165C238 167.7 262 166.3 285.8 163.5C309.7 160.7 333.3 156.3 357.2 157C381 157.7 405 163.3 428.8 165.3C452.7 167.3 476.3 165.7 488.2 164.8L500 164L500 201L488.2 201C476.3 201 452.7 201 428.8 201C405 201 381 201 357.2 201C333.3 201 309.7 201 285.8 201C262 201 238 201 214.2 201C190.3 201 166.7 201 142.8 201C119 201 95 201 71.2 201C47.3 201 23.7 201 11.8 201L0 201Z" fill="#e34c67"></path><path d="M0 160L11.8 163C23.7 166 47.3 172 71.2 174C95 176 119 174 142.8 172.8C166.7 171.7 190.3 171.3 214.2 170.8C238 170.3 262 169.7 285.8 167.8C309.7 166 333.3 163 357.2 161.8C381 160.7 405 161.3 428.8 163.3C452.7 165.3 476.3 168.7 488.2 170.3L500 172L500 201L488.2 201C476.3 201 452.7 201 428.8 201C405 201 381 201 357.2 201C333.3 201 309.7 201 285.8 201C262 201 238 201 214.2 201C190.3 201 166.7 201 142.8 201C119 201 95 201 71.2 201C47.3 201 23.7 201 11.8 201L0 201Z" fill="#d53867"></path><path d="M0 189L11.8 188C23.7 187 47.3 185 71.2 185C95 185 119 187 142.8 187.7C166.7 188.3 190.3 187.7 214.2 187.3C238 187 262 187 285.8 187.5C309.7 188 333.3 189 357.2 189C381 189 405 188 428.8 185.5C452.7 183 476.3 179 488.2 177L500 175L500 201L488.2 201C476.3 201 452.7 201 428.8 201C405 201 381 201 357.2 201C333.3 201 309.7 201 285.8 201C262 201 238 201 214.2 201C190.3 201 166.7 201 142.8 201C119 201 95 201 71.2 201C47.3 201 23.7 201 11.8 201L0 201Z" fill="#c62368"></path></svg>