<svg id="visual" viewBox="0 0 900 200" width="900" height="200" xmlns="http://www.w3.org/2000/svg" xmlns:xlink="http://www.w3.org/1999/xlink" version="1.1"><path d="M0 125L21.5 129C43 133 86 141 128.8 145.7C171.7 150.3 214.3 151.7 257.2 147C300 142.3 343 131.7 385.8 130.3C428.7 129 471.3 137 514.2 136.5C557 136 600 127 642.8 123.8C685.7 120.7 728.3 123.3 771.2 128.3C814 133.3 857 140.7 878.5 144.3L900 148L900 201L878.5 201C857 201 814 201 771.2 201C728.3 201 685.7 201 642.8 201C600 201 557 201 514.2 201C471.3 201 428.7 201 385.8 201C343 201 300 201 257.2 201C214.3 201 171.7 201 128.8 201C86 201 43 201 21.5 201L0 201Z" fill="#4065a0"></path><path d="M0 136L21.5 139.7C43 143.3 86 150.7 128.8 154.7C171.7 158.7 214.3 159.3 257.2 158.3C300 157.3 343 154.7 385.8 153.7C428.7 152.7 471.3 153.3 514.2 149.2C557 145 600 136 642.8 134.2C685.7 132.3 728.3 137.7 771.2 138C814 138.3 857 133.7 878.5 131.3L900 129L900 201L878.5 201C857 201 814 201 771.2 201C728.3 201 685.7 201 642.8 201C600 201 557 201 514.2 201C471.3 201 428.7 201 385.8 201C343 201 300 201 257.2 201C214.3 201 171.7 201 128.8 201C86 201 43 201 21.5 201L0 201Z" fill="#3880bc"></path><path d="M0 145L21.5 148C43 151 86 157 128.8 158C171.7 159 214.3 155 257.2 156.2C300 157.3 343 163.7 385.8 162.7C428.7 161.7 471.3 153.3 514.2 153.7C557 154 600 163 642.8 166C685.7 169 728.3 166 771.2 162.5C814 159 857 155 878.5 153L900 151L900 201L878.5 201C857 201 814 201 771.2 201C728.3 201 685.7 201 642.8 201C600 201 557 201 514.2 201C471.3 201 428.7 201 385.8 201C343 201 300 201 257.2 201C214.3 201 171.7 201 128.8 201C86 201 43 201 21.5 201L0 201Z" fill="#2a9bd6"></path><path d="M0 165L21.5 164.8C43 164.7 86 164.3 128.8 165.7C171.7 167 214.3 170 257.2 171C300 172 343 171 385.8 170.7C428.7 170.3 471.3 170.7 514.2 168.3C557 166 600 161 642.8 161.5C685.7 162 728.3 168 771.2 168.5C814 169 857 164 878.5 161.5L900 159L900 201L878.5 201C857 201 814 201 771.2 201C728.3 201 685.7 201 642.8 201C600 201 557 201 514.2 201C471.3 201 428.7 201 385.8 201C343 201 300 201 257.2 201C214.3 201 171.7 201 128.8 201C86 201 43 201 21.5 201L0 201Z" fill="#12b7ec"></path><path d="M0 192L21.5 190.3C43 188.7 86 185.3 128.8 182.8C171.7 180.3 214.3 178.7 257.2 177C300 175.3 343 173.7 385.8 172.8C428.7 172 471.3 172 514.2 172.5C557 173 600 174 642.8 177.3C685.7 180.7 728.3 186.3 771.2 186.7C814 187 857 182 878.5 179.5L900 177L900 201L878.5 201C857 201 814 201 771.2 201C728.3 201 685.7 201 642.8 201C600 201 557 201 514.2 201C471.3 201 428.7 201 385.8 201C343 201 300 201 257.2 201C214.3 201 171.7 201 128.8 201C86 201 43 201 21.5 201L0 201Z" fill="#00d4ff"></path></svg>